<svg width="289" height="289" viewBox="0 0 289 289" fill="none" xmlns="http://www.w3.org/2000/svg">
<g clip-path="url(#clip0_2_2974)">
<rect x="0.5" y="0.5" width="288" height="288" rx="10" fill="#2C7DFA"/>
<circle cx="267" cy="340" r="135" fill="#3685FF"/>
<circle cx="33" r="164" fill="#3685FF"/>
<path d="M119.673 224.5H108.638V218.982H119.673V224.5ZM130.707 224.5H125.189V218.982H130.707V224.5ZM147.259 224.5H136.225V218.982H147.259V224.5ZM174.845 218.982H170.845V224.5H158.293V218.982H169.327V207.948H174.845V218.982ZM202.431 180.362H207.948V185.879H213.466V191.396H202.431V196.914H207.948V202.431H218.982V213.466H213.466V224.5H180.362V202.431H169.327V191.396H163.811V185.879H158.293V174.845H163.811V180.362H169.327V185.879H174.845V169.327H202.431V180.362ZM136.225 218.982H130.707V213.466H136.225V218.982ZM152.775 218.982H147.259V207.948H152.775V218.982ZM185.879 218.982H191.396V213.466H185.879V218.982ZM196.914 218.982H202.431V213.466H196.914V218.982ZM224.5 218.982H218.982V213.466H224.5V218.982ZM130.707 207.948H125.189V213.466H114.155V202.431H130.707V207.948ZM169.327 207.948H163.811V213.466H152.776V207.948H158.293V202.431H169.327V207.948ZM152.775 196.914H147.259V207.948H136.225V202.431H130.707V196.914H141.741V191.396H152.775V196.914ZM185.879 207.948H191.396V202.431H185.879V207.948ZM196.914 207.948H202.431V202.431H196.914V207.948ZM158.293 202.431H152.776V191.396H158.293V202.431ZM130.707 196.914H119.673V191.396H130.707V196.914ZM180.362 196.914H196.914V180.362H180.362V196.914ZM224.5 196.914H218.982V191.396H224.5V196.914ZM136.225 191.396H130.707V185.879H136.225V191.396ZM191.396 191.396H185.879V185.879H191.396V191.396ZM119.673 169.327H125.189V174.845H119.673V180.362H125.189V185.879H108.638V180.362H114.155V169.327H108.638V163.811H103.121V158.293H119.673V169.327ZM152.775 180.362H147.259V185.879H141.741V174.845H152.775V180.362ZM70.0176 163.811H75.5342V169.327H70.0176V180.362H64.5V152.775H70.0176V163.811ZM92.0859 180.362H86.5693V174.845H92.0859V180.362ZM108.638 180.362H97.6035V174.845H108.638V180.362ZM130.707 180.362H125.189V174.845H130.707V180.362ZM224.5 180.362H207.948V174.845H224.5V180.362ZM103.121 169.327H97.6035V174.845H92.0859V169.327H86.5693V174.845H75.5342V169.327H81.0518V163.811H103.121V169.327ZM141.741 174.845H130.707V169.327H141.741V174.845ZM169.327 174.845H163.811V169.327H169.327V174.845ZM130.707 169.327H125.189V152.775H130.707V169.327ZM152.775 169.327H147.259V163.811H152.775V169.327ZM169.327 147.259H174.845V158.293H180.362V163.811H174.845V169.327H169.327V163.811H158.293V158.293H152.776V152.775H163.811V147.259H158.293V141.741H169.327V147.259ZM207.948 169.327H202.431V163.811H207.948V169.327ZM196.914 147.259H202.431V141.741H213.466V158.293H224.5V169.327H218.982V163.811H207.948V158.293H202.431V163.811H185.879V158.293H191.396V141.741H196.914V147.259ZM147.259 163.811H136.225V158.293H147.259V163.811ZM103.121 158.293H86.5693V152.775H103.121V158.293ZM202.431 152.775H196.914V158.293H202.431V152.775H207.948V147.259H202.431V152.775ZM119.673 125.189H125.189V141.741H119.673V147.259H125.189V152.775H108.638V141.741H114.155V136.225H119.673V130.707H114.155V136.225H108.638V130.707H103.121V136.225H92.0859V125.189H97.6035V130.707H103.121V125.189H97.6035V119.673H119.673V125.189ZM152.775 152.775H147.259V147.259H152.775V152.775ZM224.5 152.775H218.982V147.259H224.5V152.775ZM75.5342 147.259H64.5V141.741H75.5342V147.259ZM92.0859 147.259H86.5693V136.225H92.0859V147.259ZM103.121 147.259H97.6035V141.741H103.121V147.259ZM180.362 136.225H185.879V125.189H196.914V136.225H191.396V141.741H185.879V147.259H180.362V141.741H169.327V130.707H174.845V125.189H180.362V136.225ZM81.0518 141.741H75.5342V136.225H81.0518V141.741ZM108.638 141.741H103.121V136.225H108.638V141.741ZM158.293 141.741H152.776V130.707H158.293V141.741ZM202.431 141.741H196.914V136.225H202.431V141.741ZM224.5 141.741H213.466V136.225H218.982V130.707H224.5V141.741ZM75.5342 136.225H70.0176V130.707H75.5342V136.225ZM141.741 119.673H152.775V125.189H141.741V136.225H136.225V130.707H130.707V119.673H136.225V114.155H141.741V119.673ZM152.775 136.225H147.259V130.707H152.775V136.225ZM70.0176 130.707H64.5V125.189H70.0176V130.707ZM81.0518 119.673H92.0859V125.189H81.0518V130.707H75.5342V125.189H70.0176V119.673H75.5342V114.155H81.0518V119.673ZM207.948 130.707H202.431V125.189H207.948V130.707ZM158.293 108.638H163.811V114.155H169.327V108.638H174.845V119.673H163.811V125.189H152.776V97.6035H158.293V108.638ZM70.0176 119.673H64.5V108.638H70.0176V119.673ZM97.6035 119.673H92.0859V114.155H97.6035V119.673ZM202.431 119.673H191.396V114.155H202.431V119.673ZM218.982 119.673H207.948V114.155H202.431V108.638H218.982V119.673ZM103.121 114.155H97.6035V108.638H103.121V114.155ZM114.155 114.155H108.638V97.6035H114.155V114.155ZM125.189 114.155H119.673V108.638H125.189V114.155ZM191.396 114.155H180.362V108.638H191.396V114.155ZM130.707 108.638H125.189V103.121H130.707V108.638ZM147.259 103.121H152.775V108.638H141.741V97.6035H147.259V103.121ZM169.327 108.638H163.811V97.6035H169.327V108.638ZM180.362 108.638H174.845V92.0859H169.327V86.5693H174.845V70.0176H180.362V108.638ZM125.189 103.121H119.673V97.6035H125.189V103.121ZM136.225 103.121H130.707V92.0859H136.225V103.121ZM119.673 75.5342H125.189V70.0176H147.259V75.5342H141.741V81.0518H130.707V75.5342H125.189V81.0518H119.673V97.6035H114.155V86.5693H108.638V70.0176H119.673V75.5342ZM152.775 97.6035H147.259V86.5693H152.775V97.6035ZM163.811 86.5693H158.293V92.0859H152.776V81.0518H163.811V86.5693ZM130.707 86.5693H125.189V81.0518H130.707V86.5693ZM152.775 81.0518H147.259V75.5342H152.775V81.0518ZM169.327 81.0518H163.811V75.5342H169.327V81.0518ZM158.293 70.0176H163.811V75.5342H152.776V64.5H158.293V70.0176ZM125.189 70.0176H119.673V64.5H125.189V70.0176ZM152.775 70.0176H147.259V64.5H152.775V70.0176ZM169.327 70.0176H163.811V64.5H169.327V70.0176Z" fill="white"/>
<path fill-rule="evenodd" clip-rule="evenodd" d="M70.2931 64.5H97.3276H103.121V70.2931V97.3276V103.121H97.3276H70.2931H64.5V97.3276V70.2931V64.5H70.2931ZM70.2931 97.3276H97.3276V70.2931H70.2931V97.3276Z" fill="white"/>
<path fill-rule="evenodd" clip-rule="evenodd" d="M191.672 64.5H218.707H224.5V70.2931V97.3276V103.121H218.707H191.672H185.879V97.3276V70.2931V64.5H191.672ZM191.672 97.3276H218.707V70.2931H191.672V97.3276Z" fill="white"/>
<path fill-rule="evenodd" clip-rule="evenodd" d="M70.2931 185.879H97.3276H103.121V191.672V218.707V224.5H97.3276H70.2931H64.5V218.707V191.672V185.879H70.2931ZM70.2931 218.707H97.3276V191.672H70.2931V218.707Z" fill="white"/>
<rect x="75.5345" y="75.5345" width="16.5517" height="16.5517" fill="white"/>
<rect x="196.914" y="75.5345" width="16.5517" height="16.5517" fill="white"/>
<rect x="75.5345" y="196.914" width="16.5517" height="16.5517" fill="white"/>
</g>
<defs>
<clipPath id="clip0_2_2974">
<rect x="0.5" y="0.5" width="288" height="288" rx="10" fill="white"/>
</clipPath>
</defs>
</svg>
